PathFileType	3	(X/Y/Z)	F:\ViconData\AntennenMessung\Messung1\Session1\ID03.trc
DataRate	CameraRate	NumFrames	NumMarkers	Units	OrigDataRate	OrigDataStartFrame	OrigNumFrames
120.0	120.0	5	70	mm	120.0	726	1160	
Frame#	Time	Ashort			Along			Atop			A4			Bshort			Blong			Btop			B4			Cshort			Clong			Ctop			C4			Dshort			Dlong			Dtop			D4			Eshort			Elong			Etop			E4			Fshort			Flong			Ftop			F4			Gshort			Glong			Gtop			G4			Hshort			Hlong			Htop			H4			I1			I2			I3			I4			I5			WandAshort			WandAlong			WandAtop			WandA4			WandA15			WandBshort			WandB4			WandB5			WandBtop			WandBlong			WandCshort			WandClong			WandCtop			WandC4			WandC5			Acenter			Aantenna			Bcenter			Bantenna			Ccenter			Cantenna			Dcenter			Dantenna			Ecenter			Eantenna			Fcenter			Fantenna			Gcenter			Gantenna			Hcenter			Hantenna			Icenter			Iantenna			
		X1	Y1	Z1	X2	Y2	Z2	X3	Y3	Z3	X4	Y4	Z4	X5	Y5	Z5	X6	Y6	Z6	X7	Y7	Z7	X8	Y8	Z8	X9	Y9	Z9	X10	Y10	Z10	X11	Y11	Z11	X12	Y12	Z12	X13	Y13	Z13	X14	Y14	Z14	X15	Y15	Z15	X16	Y16	Z16	X17	Y17	Z17	X18	Y18	Z18	X19	Y19	Z19	X20	Y20	Z20	X21	Y21	Z21	X22	Y22	Z22	X23	Y23	Z23	X24	Y24	Z24	X25	Y25	Z25	X26	Y26	Z26	X27	Y27	Z27	X28	Y28	Z28	X29	Y29	Z29	X30	Y30	Z30	X31	Y31	Z31	X32	Y32	Z32	X33	Y33	Z33	X34	Y34	Z34	X35	Y35	Z35	X36	Y36	Z36	X37	Y37	Z37	X38	Y38	Z38	X39	Y39	Z39	X40	Y40	Z40	X41	Y41	Z41	X42	Y42	Z42	X43	Y43	Z43	X44	Y44	Z44	X45	Y45	Z45	X46	Y46	Z46	X47	Y47	Z47	X48	Y48	Z48	X49	Y49	Z49	X50	Y50	Z50	X51	Y51	Z51	X52	Y52	Z52	X53	Y53	Z53	X54	Y54	Z54	X55	Y55	Z55	X56	Y56	Z56	X57	Y57	Z57	X58	Y58	Z58	X59	Y59	Z59	X60	Y60	Z60	X61	Y61	Z61	X62	Y62	Z62	X63	Y63	Z63	X64	Y64	Z64	X65	Y65	Z65	X66	Y66	Z66	X67	Y67	Z67	X68	Y68	Z68	X69	Y69	Z69	X70	Y70	Z70	
726	6.0416667	-1038.2653	214.4541	-1644.1906	-1109.3064	203.51913	-1599.5649	-1063.6726	172.69881	-1625.4667	-1054.1533	262.08945	-1634.9602	-1353.0657	234.76341	1003.8622	-1281.457	227.20073	1052.2964	-1323.1146	194.19269	1020.7907	-1284.5707	287.91254	1052.7064	813.80652	187.66113	1209.4845	892.25098	178.42863	1179.1527	844.27173	145.45728	1198.2329	860.40271	292.4812	1167.2383	1115.8008	209.72504	-1401.7209	1056.2968	194.09904	-1460.1842	1094.9396	162.14906	-1423.8732	1069.8938	238.63033	-1425.9581	-1204.5497	1686.004	-1563.192	-1129.1099	1688.2157	-1606.0922	-1173.1066	1724.3801	-1581.9718	-1133.5203	1581.061	-1603.509	-1239.7136	1699.2246	1119.2789	-1309.4653	1698.8848	1071.8282	-1270.3961	1736.2086	1096.6932	-1244.6442	1594.1046	1106.3771	988.79218	1664.2015	1162.2351	955.74048	1702.3055	1181.0936	921.88788	1662.2668	1214.8041	939.73981	1659.3348	1159.8629	999.21527	1668.5493	-1579.5353	1058.7141	1669.9794	-1518.6985	1025.073	1708.0083	-1551.1725	1059.3046	1672.2023	-1585.624	-552.52771	1664.1392	-294.57956	-557.44623	1665.2571	-210.14555	-555.22443	1701.4117	-257.27011	-586.65283	1662.5299	-259.78555	-506.8671	1666.8538	-254.69933																																														-1069.0038	209.72266	-1624.8813	-1074.5616	248.31978	-1624.2712	-1321.958	231.47807	1024.9026	-1320.7562	270.22467	1029.1757	848.00305	183.63637	1196.2617	851.79156	222.4003	1194.2606	1088.7054	202.6097	-1428.3423	1082.8015	240.92719	-1432.5746	-1171.8911	1686.9614	-1581.7638	-1170.6252	1647.9825	-1581.5471	-1271.069	1699.0718	1097.9485	-1271.7751	1660.1003	1099.2656	953.13074	1705.3141	1182.5825	972.72394	1732.3101	1162.3757	1026.4905	1669.2047	-1551.6466	1027.9142	1630.2336	-1552.1228	-554.73114	1664.6398	-256.75449	-554.20813	1625.6472	-256.20773
727	6.05	-1038.272	214.47662	-1644.203	-1109.3241	203.46043	-1599.5486	-1063.5557	172.65137	-1625.5812	-1054.1393	262.09045	-1634.9629	-1353.1313	234.77115	1003.8669	-1281.3187	227.05879	1052.3652	-1323.1487	194.15829	1020.7957	-1284.7142	287.89035	1052.7667	813.80878	187.66591	1209.3997	892.26428	178.43887	1179.2319	844.2439	145.52457	1198.252	860.49011	292.57712	1167.2358	1115.7469	209.47786	-1401.5924	1056.2147	194.04012	-1460.2129	1095.0116	162.17477	-1423.8696	1069.9412	238.68146	-1425.9224	-1204.4432	1685.9471	-1563.3239	-1129.1167	1688.2035	-1606.0515	-1173.106	1724.3929	-1581.9728	-1133.5468	1581.0798	-1603.5199	-1239.7299	1699.2426	1119.2922	-1309.4507	1698.8458	1071.8043	-1270.3944	1736.1904	1096.6838	-1244.6372	1594.1287	1106.3551	988.81427	1664.2615	1162.2251	955.81415	1702.3148	1181.1428	922.07837	1662.1484	1214.6765	939.72363	1659.3008	1159.8289	999.23328	1668.5675	-1579.5314	1058.7062	1669.975	-1518.6992	1025.0703	1708.0065	-1551.1633	1059.3123	1672.1918	-1585.6194	-552.52808	1664.1447	-294.57245	-557.23981	1665.019	-210.31744	-555.22876	1701.4084	-257.26578	-586.65283	1662.526	-259.79492	-507.19714	1666.6227	-254.71494																																														-1068.907	209.72684	-1624.9495	-1074.4778	248.32133	-1624.2921	-1321.9401	231.42134	1024.9316	-1320.6835	270.16318	1029.2318	847.96405	183.64894	1196.2661	851.74664	222.41252	1194.2472	1088.7749	202.48357	-1428.1511	1082.8444	240.81436	-1432.2228	-1171.882	1686.9225	-1581.7936	-1170.6086	1647.9436	-1581.6071	-1271.0514	1699.0643	1097.9586	-1271.7411	1660.0934	1099.2966	953.31543	1705.196	1182.5751	972.92548	1732.2206	1162.4225	1026.4889	1669.2124	-1551.6527	1027.9141	1630.2416	-1552.1443	-554.63763	1664.536	-256.85007	-554.01239	1625.5435	-256.41046
728	6.0583333	-1038.3268	214.67033	-1644.1995	-1109.307	203.46162	-1599.5621	-1063.5399	173.06479	-1625.7869	-1054.1409	262.07925	-1634.9623	-1353.1021	234.80836	1003.9232	-1281.3301	227.15387	1052.3185	-1323.2146	194.07625	1020.8883	-1284.7288	287.85486	1052.8452	813.81641	187.67229	1209.5471	892.2085	178.39581	1179.278	844.37708	145.3911	1198.3018	860.51031	292.64774	1167.1765	1115.7528	209.49321	-1401.5981	1056.226	194.07262	-1460.2198	1095.0133	162.20157	-1423.8927	1069.9055	238.67003	-1425.942	-1204.4871	1685.9381	-1563.316	-1129.1268	1688.2042	-1606.0424	-1173.1113	1724.3831	-1581.9829	-1133.5309	1581.0537	-1603.5051	-1239.7179	1699.2368	1119.286	-1309.4655	1698.8611	1071.8214	-1270.3699	1736.1619	1096.6722	-1244.5229	1594.6663	1106.5096	988.80011	1664.229	1162.2494	955.85699	1702.3652	1181.0625	922.59235	1662.04	1214.8097	939.7793	1659.3318	1159.7921	999.22308	1668.553	-1579.5168	1058.6987	1669.9525	-1518.6852	1025.0768	1708.0078	-1551.1599	1059.3094	1672.1304	-1585.4684	-552.43506	1664.1788	-294.58893	-557.23401	1665.0242	-210.31599	-555.22504	1701.4031	-257.26892	-586.66089	1662.5293	-259.79132	-507.21515	1666.6104	-254.70999																																														-1068.8546	209.84956	-1625.0015	-1074.4303	248.44012	-1624.1774	-1321.9495	231.48593	1024.9291	-1320.6389	270.23849	1029.1149	848.12665	183.6122	1196.2991	851.92914	222.3732	1194.2679	1088.7778	202.50525	-1428.163	1082.8474	240.83717	-1432.2242	-1171.882	1686.9183	-1581.8018	-1170.603	1647.9399	-1581.6133	-1271.0493	1699.0681	1097.9642	-1271.7631	1660.0981	1099.3218	953.66107	1704.9072	1182.3164	973.16711	1731.8208	1161.916	1026.4799	1669.1942	-1551.6387	1027.8887	1630.2227	-1552.1195	-554.58331	1664.5571	-256.86279	-553.9043	1625.5654	-256.43298
729	6.0666667	-1038.3196	214.69368	-1644.2235	-1109.2795	203.46864	-1599.5598	-1063.5469	172.64969	-1625.6155	-1054.1506	262.09396	-1634.9727	-1353.1205	234.73772	1003.9091	-1281.399	227.31564	1052.2438	-1323.0735	194.2299	1020.7667	-1284.7147	287.84976	1052.738	813.823	187.63789	1209.4899	892.16638	178.20628	1179.2566	844.23767	145.53043	1198.1578	860.50391	292.58127	1167.3433	1115.7996	209.74696	-1401.7411	1056.222	194.04343	-1460.183	1094.98	162.1748	-1423.9255	1069.8984	238.63902	-1425.9664	-1204.4573	1685.9518	-1563.3229	-1129.121	1688.2267	-1606.0621	-1173.1403	1724.3188	-1581.8909	-1133.5118	1581.0461	-1603.4993	-1239.7017	1699.189	1119.2782	-1309.4432	1698.8387	1071.807	-1270.4167	1736.2365	1096.7089	-1244.6208	1594.4742	1106.4948	988.82996	1664.2697	1162.2244	955.84375	1702.2949	1181.1429	922.04156	1662.1407	1214.7242	939.73218	1659.2933	1159.8446	999.23474	1668.5598	-1579.5121	1058.7078	1669.9713	-1518.6949	1025.0743	1708.0016	-1551.1633	1059.2947	1672.1647	-1585.5632	-552.52704	1664.1426	-294.57895	-557.23114	1665.0262	-210.31606	-555.23132	1701.4081	-257.27042	-586.64587	1662.5272	-259.7886	-507.22635	1666.6289	-254.70724																																														-1068.9913	209.84175	-1624.918	-1074.6392	248.42384	-1624.1946	-1321.9918	231.51639	1024.8873	-1320.8678	270.26431	1029.1693	848.0816	183.51355	1196.2692	852.00354	222.26797	1194.3422	1088.6697	202.59602	-1428.3538	1082.6891	240.9055	-1432.5508	-1171.9424	1686.9335	-1581.769	-1170.6932	1647.9537	-1581.6421	-1271.0623	1699.0314	1097.9319	-1271.7385	1660.0582	1099.2129	953.2951	1705.2329	1182.6045	972.90015	1732.264	1162.4562	1026.4868	1669.2065	-1551.6439	1027.9058	1630.2354	-1552.127	-554.63318	1664.5381	-256.85043	-554.00067	1625.5459	-256.40625
730	6.075	-1038.3157	214.62895	-1644.2053	-1109.3157	203.43387	-1599.5573	-1063.6576	172.6132	-1625.537	-1054.1444	262.07852	-1634.9518	-1353.075	234.76054	1003.9349	-1281.3756	227.27812	1052.2034	-1323.1884	194.17024	1020.8395	-1284.714	287.86884	1052.813	813.83636	187.6498	1209.4288	892.33521	178.45703	1179.1204	844.22192	145.49425	1198.203	860.47266	292.59503	1167.251	1115.7365	209.47421	-1401.5917	1056.2386	194.06961	-1460.1942	1094.9858	162.1757	-1423.8741	1069.8813	238.61789	-1425.9255	-1204.5441	1686.0029	-1563.1868	-1129.1348	1688.1945	-1606.0364	-1173.1414	1724.3167	-1581.8988	-1133.5338	1581.0691	-1603.5305	-1239.7385	1699.2562	1119.2883	-1309.4442	1698.8579	1071.804	-1270.373	1736.163	1096.6682	-1244.6571	1594.0375	1106.4248	988.84192	1664.2596	1162.2294	955.97748	1702.387	1181.1362	922.46753	1662.1057	1214.8203	939.75061	1659.2913	1159.8646	999.21613	1668.5717	-1579.5168	1058.8407	1670.1437	-1518.6562	1025.0751	1708.0159	-1551.1572	1059.2986	1672.1682	-1585.568	-552.51782	1664.1439	-294.59174	-557.22675	1665.0259	-210.31567	-555.22101	1701.4144	-257.27432	-586.64728	1662.528	-259.7999	-507.1904	1666.63	-254.72787																																														-1069.088	209.77682	-1624.8541	-1074.726	248.36064	-1624.1451	-1321.9957	231.51717	1024.8575	-1320.7583	270.27386	1029.0272	847.9411	183.65588	1196.2609	851.71918	222.42229	1194.288	1088.7657	202.49121	-1428.1565	1082.8516	240.82449	-1432.2283	-1171.9476	1686.9502	-1581.7089	-1170.7023	1647.9707	-1581.5109	-1271.0431	1699.0773	1097.9631	-1271.7473	1660.1074	1099.3239	953.67761	1705.0551	1182.4594	973.25391	1731.9949	1162.1613	1026.5573	1669.2926	-1551.6089	1028.0487	1630.3236	-1552.0636	-554.62634	1664.5387	-256.85519	-553.9975	1625.5464	-256.41199
